<?xml version="1.0" encoding="UTF-8"?>
<svg id="Layer_1" data-name="Layer 1" xmlns="http://www.w3.org/2000/svg" viewBox="0 0 1920.24 1080.24">
  <path d="M407.46,619.89c-41.4-25.2-83.71-47.61-127.74-66.48-34.63-14.98-69-26.32-107.06-35.98,46.94-11.45,90.88-25.71,134.46-44.68,91.62-39.88,203.47-110.87,275.3-179.16l33.05-31.42-12.9,55.27c-16.88,72.32-21.83,146.36-21.26,220.76.59,41.67,3.36,82.23,9.62,123.35,5.25,37.34,13.9,73.08,24.62,111.01-65.51-56.66-133.96-107.56-208.09-152.67ZM539.04,648.41c-10.73-84.38-9.64-168.7.68-255.02-68.45,51.14-137.43,92.51-215.37,125.93,75.65,35.14,146.28,79.47,214.69,129.1Z" style="fill: #005f86;"/>
  <path d="M1740.81,474.28c13.88,36.55,13.27,87.36-1.4,123.62-11.24,27.78-32.71,48.75-60.96,58.57-14.44,4.74-28.7,7.6-44.31,7.61l-106.34.06v-258.23s105.32.06,105.32.06c14.72,0,28.3,2.35,42.08,6.55,30.78,9.42,54.18,31.66,65.61,61.76ZM1691.03,500.5c-4.16-15-12.4-27.34-24.46-36.67-11.98-8.26-25.65-13.05-40.4-13.12l-44.17-.18v168.96s42.64-.05,42.64-.05c13.57-.02,26.16-3.57,37.78-10.09,34.69-20.85,38.22-74.2,28.61-108.85Z" style="fill: #005f86;"/>
  <path d="M1156.75,663.82l-61,.38-48.17-94.48-44.18-.1v94.41s-54.02.14-54.02.14v-258.32s111.79.12,111.79.12c15.69.02,30.04,3.31,44.17,9.28,19.64,8.97,34.01,24.93,40.28,45.63,11.31,39.46-2.23,84.56-43.07,100.7l54.19,102.23ZM1079.97,457.29c-7.6-5.86-16.58-8.37-26.28-9.05l-50.28.02v81.09s55.5-.07,55.5-.07c9.82-2.07,18.74-4.87,25.39-12.27,14.08-15.64,12.97-46.49-4.33-59.73Z" style="fill: #005f86;"/>
  <polygon points="1470.22 554.28 1359.94 554.3 1359.79 619.5 1476.9 619.55 1476.73 664.19 1305.77 664.16 1305.77 405.88 1476.82 405.87 1476.92 450.49 1359.89 450.53 1359.83 512.71 1470.23 512.78 1470.22 554.28" style="fill: #005f86;"/>
  <path d="M863.49,574.19c-12.3,5.02-24.19,8.32-37.27,8.37l-56.57.2-.04,81.4h-54.07s0-258.21,0-258.21h110.52c12.97,0,24.65,2.92,36.45,7.47,22.03,9.36,38.36,27.07,45.56,50.05,13.39,42.72-.93,91.41-44.59,110.73ZM855.54,478.03c-3.2-11.49-11.08-20.02-21.9-24.77-6.9-2.52-14.17-4.29-21.74-4.29h-42.26s0,91.34,0,91.34h40.29c9.03.01,17.56-1.86,25.68-5.3,21.46-10.48,25.74-36.09,19.93-56.97Z" style="fill: #005f86;"/>
  <path d="M399.53,630.35c44.74,27.1,87.01,56.11,129.48,88.71-118.43,37.8-243.59-36.44-267.1-158.72,48.05,19.4,93.16,43.09,137.62,70.01Z" style="fill: #005f86;"/>
  <path d="M528.39,322.42c-80.13,64.06-167.83,117.53-265.48,153.98,25.73-118.7,148.36-190.5,265.48-153.98Z" style="fill: #005f86;"/>
  <path d="M606.26,674.48c-17.29-101.96-14.81-205.77.61-306.67,89.75,82.46,89.8,224.53-.61,306.67Z" style="fill: #005f86;"/>
  <polygon points="1249.93 663.77 1195.77 664.18 1195.77 405.93 1249.91 405.85 1249.93 663.77" style="fill: #005f86;"/>
</svg>